<?xml version="1.0" standalone="no"?><!DOCTYPE svg PUBLIC "-//W3C//DTD SVG 1.1//EN" "http://www.w3.org/Graphics/SVG/1.1/DTD/svg11.dtd"><svg t="1616037659542" class="icon" viewBox="0 0 1024 1024" version="1.1" xmlns="http://www.w3.org/2000/svg" p-id="2957" xmlns:xlink="http://www.w3.org/1999/xlink" width="200" height="200"><defs><style type="text/css"></style></defs><path d="M407.466667 710.4c-83.2 0-166.4-32-228.266667-93.866667-125.866667-125.866667-125.866667-330.666667 0-456.533333 125.866667-125.866667 330.666667-125.866667 456.533333 0 8.533333 8.533333 8.533333 21.333333 0 29.866667s-21.333333 8.533333-29.866666 0C497.066667 78.933333 320 78.933333 209.066667 187.733333c-108.8 108.8-108.8 288 0 396.8 108.8 108.8 288 108.8 396.8 0 8.533333-8.533333 21.333333-8.533333 29.866666 0s8.533333 21.333333 0 29.866667c-61.866667 64-145.066667 96-228.266666 96z" p-id="2958"></path><path d="M407.466667 563.2c-46.933333 0-91.733333-19.2-125.866667-51.2-34.133333-34.133333-51.2-78.933333-51.2-125.866667s19.2-91.733333 51.2-125.866666c34.133333-34.133333 78.933333-51.2 125.866667-51.2s91.733333 19.2 125.866666 51.2c8.533333 8.533333 8.533333 21.333333 0 29.866666s-21.333333 8.533333-29.866666 0c-25.6-25.6-59.733333-38.4-96-38.4s-70.4 14.933333-96 38.4-38.4 59.733333-38.4 96c0 36.266667 14.933333 70.4 38.4 96s59.733333 38.4 96 38.4 70.4-14.933333 96-38.4c8.533333-8.533333 21.333333-8.533333 29.866666 0s8.533333 21.333333 0 29.866667c-34.133333 34.133333-76.8 51.2-125.866666 51.2z" p-id="2959"></path><path d="M642.133333 957.866667c-74.666667 0-149.333333-27.733333-206.933333-85.333334-8.533333-8.533333-8.533333-21.333333 0-29.866666s21.333333-8.533333 29.866667 0c98.133333 98.133333 256 98.133333 354.133333 0 98.133333-98.133333 98.133333-256 0-354.133334-98.133333-98.133333-256-98.133333-354.133333 0-8.533333 8.533333-21.333333 8.533333-29.866667 0s-8.533333-21.333333 0-29.866666c115.2-115.2 300.8-115.2 413.866667 0 115.2 115.2 115.2 300.8 0 413.866666-55.466667 55.466667-130.133333 85.333333-206.933334 85.333334z" p-id="2960"></path><path d="M642.133333 825.6c-40.533333 0-83.2-14.933333-115.2-46.933333-8.533333-8.533333-8.533333-21.333333 0-29.866667s21.333333-8.533333 29.866667 0c46.933333 46.933333 121.6 46.933333 168.533333 0s46.933333-121.6 0-168.533333c-23.466667-23.466667-53.333333-34.133333-83.2-34.133334-32 0-61.866667 12.8-83.2 34.133334-8.533333 8.533333-21.333333 8.533333-29.866666 0s-8.533333-21.333333 0-29.866667c29.866667-29.866667 70.4-46.933333 115.2-46.933333 42.666667 0 83.2 17.066667 115.2 46.933333 64 64 64 166.4 0 228.266667-34.133333 32-74.666667 46.933333-117.333334 46.933333z" p-id="2961"></path></svg>